<?xml version="1.0" encoding="UTF-8" standalone="no"?>
<!-- Created with Inkscape (http://www.inkscape.org/) -->
<svg
   xmlns:svg="http://www.w3.org/2000/svg"
   xmlns="http://www.w3.org/2000/svg"
   version="1.0"
   width="921.25983"
   height="212.59842"
   id="svg1878">
  <defs
     id="defs1880" />
  <g
     id="layer1">
    <g
       transform="matrix(3.543307e-5,0,0,3.543307e-5,3.330078e-6,5.323366e-3)"
       style="fill-rule:evenodd"
       id="Ebene_x0020_1">
  
  <g
   id="_47162240">
   <path
   d="M 25500000,1017880 L 25500000,4967030 L 24500820,4967030 L 24500820,2556480 L 23564950,3833870 L 23420610,3833870 L 22484850,2556480 L 22484850,4967030 L 21485670,4967030 L 21485670,1017880 L 22362420,1017880 L 23489670,2522080 L 24634950,1017880 L 25500000,1017880 L 25500000,1017880 z M 2919000,3515360 C 2625260,3477610 2195470,3524350 1933270,3639820 L 2570820,1966130 L 3808660,4967830 L 4753670,4967830 L 3123150,1013310 L 2013230,1013310 L 500000,4968360 L 1444100,4968360 C 1615710,4380680 2367200,3937750 3064030,3874970 L 2919000,3515360 L 2919000,3515360 z M 8149570,4194020 L 8149570,4962460 L 5383990,4962460 L 5383990,1014650 L 6360310,1014650 L 6360310,4194020 L 8149570,4194020 z M 15451610,1020020 L 15451610,1784950 L 14147100,1784950 L 14147100,4961660 L 13147620,4961660 L 13147620,1784950 L 11844590,1784950 L 11844590,1020020 L 15451610,1020020 L 15451610,1020020 z M 11293590,1836840 C 10171060,1433000 9446540,1709830 9446540,2029830 C 9446540,2752820 11596250,2341590 11592480,3754980 C 11589240,4812900 10703890,5099260 9797580,5099260 C 9418080,5099260 8943960,5040290 8581910,4923370 L 8675960,4073220 C 8947580,4204640 9347800,4293060 9797580,4293060 C 10189610,4293060 10656200,4215010 10680800,3906550 C 10744500,3100780 8541190,3603510 8541190,2130210 C 8541190,1149420 9473170,844930 10291060,844930 C 10675810,844930 11182050,976090 11358390,1056050 L 11293590,1836840 z "
   style="fill:#062173"
   id="_47295312" />

   <path
   d="M 20547500,4119850 C 20919450,3447900 20864220,2643830 20461060,2013830 L 20711990,1749910 C 21138920,2466050 21143750,3366450 20683760,4115810 L 20547500,4119850 z M 16970840,3246030 C 16976100,2546160 17549530,1972300 18271730,1953370 C 19009130,1934020 19621800,2500980 19640350,3219820 C 19658910,3938550 19077010,4536870 18339460,4555530 C 17972190,4565060 17634870,4429060 17387860,4200760 L 17194460,4396410 C 16343390,3608880 16309670,2296450 17118150,1465110 C 17767890,798270 18763870,644560 19571290,1017350 L 19581880,1029310 L 19684960,915330 C 18658390,319570 17304020,487720 16438550,1374520 C 15418110,2420490 15467440,4073220 16540410,5065280 L 16733660,4867870 C 17157500,5256780 17652350,5449080 18229140,5434830 C 19388620,5403940 20304230,4464410 20274930,3333380 C 20260300,2768020 20012190,2262050 19621800,1901330 L 19758480,1761560 C 19083830,1136930 17966940,1149420 17314220,1819090 C 16928100,2215960 16746160,2750160 16832710,3251140 L 16970840,3246030 L 16970840,3246030 z "
   style="fill:#e70000"
   id="_47166048" />

  </g>

 </g>
  </g>
</svg>
